<svg xmlns="http://www.w3.org/2000/svg" xml:space="preserve" id="レイヤー_1" x="0" y="0" style="enable-background:new 0 0 332 99.1" version="1.1" viewBox="0 0 332 99.1"><style>.st0{fill:gray}.st1{fill:#666}.st2{fill:#595757}.st3{fill:#c8c9ca}.st4,.st5,.st6{fill:none;stroke:#c8c9ca;stroke-width:3;stroke-miterlimit:10}.st5,.st6{stroke:#c1272d}.st6{stroke:#888;stroke-width:2;stroke-linecap:round;stroke-linejoin:round}.st7{fill:#ffffc5}.st8{fill:#4d4d4d}</style><path d="M67.7 78.5C67.7 94.6 55.9 99 41.3 99s-26.4-4.4-26.4-20.5 11.8-34.6 26.4-34.6 26.4 18.5 26.4 34.6z" class="st0"/><path d="M41.3 99c14.6 0 26.4-4.4 26.4-20.5S55.9 43.9 41.3 43.9c-3.3 0 23.2 4.4 20.5 31.7-2.5 26.9-22.7 20.5-20.5 23.4" class="st1"/><path d="M67.2 20.5c1.1-5.9 2.7-17.8-1-20.1-3.9-2.5-12 5.8-15.4 9.6-3-.8-6.3-1.2-9.6-1.2s-6.6.4-9.6 1.2C28.3 6.2 20.2-2.1 16.3.4c-3.7 2.4-2 14.2-1 20.1-2.3 3.3-3.7 7-3.7 11 0 12.6 13.3 20.2 29.6 20.2s29.6-7.6 29.6-20.2c.1-4-1.2-7.7-3.6-11z" class="st0"/><path d="M67.5 34c0 3.8 1.2 6.8 2.6 6.8 1.4 0 5.8-3 5.8-6.8s-4.4-6.8-5.8-6.8c-1.4 0-2.6 3-2.6 6.8z" class="st2"/><path d="M70.1 27.2h-2.7c-.8 0-1.4.6-1.4 1.4v10.9c0 .8.6 1.4 1.4 1.4h2.7" class="st3"/><path d="M15.5 34c0 3.8-1.2 6.8-2.6 6.8-1.4 0-5.8-3-5.8-6.8s4.4-6.8 5.8-6.8c1.4 0 2.6 3 2.6 6.8z" class="st2"/><path d="M12.9 27.2h2.7c.8 0 1.4.6 1.4 1.4v10.9c0 .8-.6 1.4-1.4 1.4h-2.7" class="st3"/><path d="M60.4 11.5c4.8 4 7.8 9.8 7.8 17.4M14.8 28.8c0-7.6 3-13.4 7.8-17.4" class="st4"/><path d="M22.6 11.5c4.8-4 11.5-6 18.9-6s14.1 2.1 18.9 6" class="st5"/><path d="M75.3 33.2s3 18-20.8 18" class="st6"/><path d="M57.8 51.5c0 .8-.6 1.4-1.4 1.4H52c-.8 0-1.4-.6-1.4-1.4v-.7c0-.8.6-1.4 1.4-1.4h4.4c.8 0 1.4.6 1.4 1.4v.7z" class="st2"/><path d="M36.7 29.6c0 3.1-3.2 5.6-7.1 5.6s-7.1-2.5-7.1-5.6 3.2-2.8 7.1-2.8 7.1-.3 7.1 2.8z" class="st7"/><ellipse cx="29.4" cy="31.1" rx="1.3" ry="4.1"/><path d="M60.5 29.6c0 3.1-3.2 5.6-7.1 5.6s-7.1-2.5-7.1-5.6 3.2-2.8 7.1-2.8 7.1-.3 7.1 2.8z" class="st7"/><ellipse cx="53.1" cy="31.1" rx="1.3" ry="4.1"/><path d="M150.8 78.6c0 16.1-11.8 20.5-26.4 20.5S98 94.7 98 78.6 109.9 44 124.5 44s26.3 18.4 26.3 34.6z" class="st0"/><path d="M124.5 99.1c14.6 0 26.4-4.4 26.4-20.5S139.1 44 124.5 44c-3.3 0 23.2 4.4 20.5 31.7-2.5 26.9-22.8 20.5-20.5 23.4" class="st1"/><path d="M150.4 20.6c1.1-5.9 2.7-17.8-1-20.1-3.9-2.5-12 5.8-15.4 9.6-3-.8-6.3-1.2-9.6-1.2s-6.6.4-9.6 1.2C111.5 6.3 103.3-2 99.5.5c-3.7 2.4-2 14.2-1 20.1-2.3 3.3-3.7 7-3.7 11 0 12.6 13.3 20.2 29.6 20.2S154 44.2 154 31.6c.1-4-1.2-7.8-3.6-11z" class="st0"/><path d="M150.7 34.1c0 3.8 1.2 6.8 2.6 6.8 1.4 0 5.8-3 5.8-6.8s-4.4-6.8-5.8-6.8c-1.4 0-2.6 3-2.6 6.8z" class="st2"/><path d="M153.3 27.3h-2.7c-.8 0-1.4.6-1.4 1.4v10.9c0 .8.6 1.4 1.4 1.4h2.7" class="st3"/><path d="M98.6 34.1c0 3.8-1.2 6.8-2.6 6.8-1.4 0-5.8-3-5.8-6.8s4.4-6.8 5.8-6.8c1.5 0 2.6 3 2.6 6.8z" class="st2"/><path d="M96 27.3h2.7c.8 0 1.4.6 1.4 1.4v10.9c0 .8-.6 1.4-1.4 1.4H96" class="st3"/><path d="M143.6 11.5c4.8 4 7.8 9.8 7.8 17.4M97.9 28.9c0-7.6 3-13.4 7.8-17.4" class="st4"/><path d="M105.8 11.5c4.8-4 11.5-6 18.9-6 7.4 0 14.1 2.1 18.9 6" class="st5"/><path d="M158.5 33.3s3 18-20.8 18" class="st6"/><path d="M141 51.6c0 .8-.6 1.4-1.4 1.4h-4.4c-.8 0-1.4-.6-1.4-1.4v-.7c0-.8.6-1.4 1.4-1.4h4.4c.8 0 1.4.6 1.4 1.4v.7z" class="st2"/><path d="M119.9 31.9c0 1.8-3.2 3.3-7.1 3.3s-7.1-1.5-7.1-3.3 3.2-1.7 7.1-1.7 7.1-.1 7.1 1.7z" class="st7"/><path d="M113.8 30.2v.9c0 2.3-.6 4.1-1.3 4.1-.7 0-1.3-1.8-1.3-4.1v-.9h2.6z"/><path d="M143.4 31.9c0 1.8-3.2 3.3-7.1 3.3s-7.1-1.5-7.1-3.3 3.2-1.7 7.1-1.7 7.1-.1 7.1 1.7z" class="st7"/><path d="M137.3 30.2v.9c0 2.3-.6 4.1-1.3 4.1s-1.3-1.8-1.3-4.1v-.9h2.6z"/><path d="M234 78.6c0 16.1-11.8 20.5-26.4 20.5s-26.4-4.4-26.4-20.5S193.1 44 207.6 44 234 62.4 234 78.6z" class="st0"/><path d="M207.7 99.1c14.6 0 26.4-4.4 26.4-20.5S222.3 44 207.7 44c-3.3 0 23.2 4.4 20.5 31.7-2.6 26.9-22.8 20.5-20.5 23.4" class="st1"/><path d="M233.6 20.6c1.1-5.9 2.7-17.8-1-20.1-3.9-2.5-12 5.8-15.4 9.6-3-.8-6.3-1.2-9.6-1.2s-6.6.3-9.6 1.1c-3.4-3.7-11.5-12.1-15.4-9.6-3.7 2.4-2 14.2-1 20.1-2.3 3.3-3.7 7-3.7 11 0 12.6 13.3 20.2 29.6 20.2s29.6-7.6 29.6-20.2c.2-3.9-1.2-7.7-3.5-10.9z" class="st0"/><path d="M233.9 34.1c0 3.8 1.2 6.8 2.6 6.8 1.4 0 5.8-3 5.8-6.8s-4.4-6.8-5.8-6.8c-1.4 0-2.6 3-2.6 6.8z" class="st2"/><path d="M236.5 27.3h-2.7c-.8 0-1.4.6-1.4 1.4v10.9c0 .8.6 1.4 1.4 1.4h2.7" class="st3"/><path d="M181.8 34.1c0 3.8-1.2 6.8-2.6 6.8-1.4 0-5.8-3-5.8-6.8s4.4-6.8 5.8-6.8c1.4 0 2.6 3 2.6 6.8z" class="st2"/><path d="M179.2 27.3h2.7c.8 0 1.4.6 1.4 1.4v10.9c0 .8-.6 1.4-1.4 1.4h-2.7" class="st3"/><path d="M226.8 11.5c4.8 4 7.8 9.8 7.8 17.4M181.1 28.9c0-7.6 3-13.4 7.8-17.4" class="st4"/><path d="M188.9 11.5c4.8-4 11.5-6 18.9-6s14.1 2.1 18.9 6" class="st5"/><path d="M241.7 33.3s3 18-20.8 18" class="st6"/><path d="M224.2 51.6c0 .8-.6 1.4-1.4 1.4h-4.4c-.8 0-1.4-.6-1.4-1.4v-.7c0-.8.6-1.4 1.4-1.4h4.4c.8 0 1.4.6 1.4 1.4v.7z" class="st2"/><path d="M203 31.9c.1.7-.4 1.5-.9 1.9-.6.5-1.2.9-1.9 1.1-1.4.6-2.8.8-4.3.8s-2.9-.2-4.3-.8c-.7-.3-1.3-.6-1.9-1.1-.5-.5-1-1.2-.9-1.9.1.7.6 1.2 1.2 1.6.6.4 1.2.6 1.9.8 1.3.4 2.7.5 4.1.5 1.4 0 2.7-.1 4.1-.5.7-.2 1.3-.4 1.9-.8.4-.4.9-.9 1-1.6zM226.4 31.9c.1.7-.4 1.5-.9 1.9-.6.5-1.2.9-1.9 1.1-1.4.6-2.8.8-4.3.8s-2.9-.2-4.3-.8c-.7-.3-1.3-.6-1.9-1.1-.5-.5-1-1.2-.9-1.9.1.7.6 1.2 1.2 1.6.6.4 1.2.6 1.9.8 1.3.4 2.7.5 4.1.5 1.4 0 2.7-.1 4.1-.5.7-.2 1.3-.4 1.9-.8.3-.4.8-.9 1-1.6z" class="st8"/><path d="M317.2 78.4c0 16.1-11.8 20.5-26.4 20.5-14.6 0-26.4-4.4-26.4-20.5s11.8-34.6 26.4-34.6c14.6 0 26.4 18.5 26.4 34.6z" class="st0"/><path d="M290.9 98.9c14.6 0 26.4-4.4 26.4-20.5s-11.8-34.6-26.4-34.6c-3.3 0 23.2 4.4 20.5 31.7-2.6 26.9-22.8 20.5-20.5 23.4" class="st1"/><path d="M316.8 20.4c1.1-5.9 2.7-17.8-1-20.1-3.9-2.5-12 5.8-15.4 9.6-3-.8-6.3-1.2-9.6-1.2-3.4 0-6.6.4-9.6 1.2-3.4-3.7-11.5-12.1-15.4-9.6-3.7 2.4-2 14.2-1 20.1-2.3 3.3-3.7 7-3.7 11 0 12.6 13.3 20.2 29.6 20.2 16.4 0 29.6-7.6 29.6-20.2.1-4-1.2-7.7-3.5-11z" class="st0"/><path d="M317.1 33.9c0 3.8 1.2 6.8 2.6 6.8 1.4 0 5.8-3 5.8-6.8s-4.4-6.8-5.8-6.8c-1.5 0-2.6 3-2.6 6.8z" class="st2"/><path d="M319.7 27.1H317c-.8 0-1.4.6-1.4 1.4v10.9c0 .8.6 1.4 1.4 1.4h2.7" class="st3"/><path d="M265 33.9c0 3.8-1.2 6.8-2.6 6.8-1.4 0-5.8-3-5.8-6.8s4.4-6.8 5.8-6.8c1.4 0 2.6 3 2.6 6.8z" class="st2"/><path d="M262.4 27.1h2.7c.8 0 1.4.6 1.4 1.4v10.9c0 .8-.6 1.4-1.4 1.4h-2.7" class="st3"/><path d="M309.9 11.4c4.8 4 7.8 9.8 7.8 17.4M264.3 28.7c0-7.6 3-13.4 7.8-17.4" class="st4"/><path d="M272.1 11.4c4.8-4 11.5-6 18.9-6s14.1 2.1 18.9 6" class="st5"/><path d="M324.8 33.1s3 18-20.8 18" class="st6"/><path d="M307.4 51.4c0 .8-.6 1.4-1.4 1.4h-4.4c-.8 0-1.4-.6-1.4-1.4v-.7c0-.8.6-1.4 1.4-1.4h4.4c.8 0 1.4.6 1.4 1.4v.7z" class="st2"/><path d="M286.2 31.8c0 1.8-3.2 3.3-7.1 3.3-3.9 0-7.1-1.5-7.1-3.3s3.2-1.7 7.1-1.7c3.9 0 7.1-.2 7.1 1.7z" class="st7"/><path d="M280.1 30.1v.9c0 2.3-.6 4.1-1.3 4.1-.7 0-1.3-1.8-1.3-4.1v-.9h2.6z"/><path d="M309.8 31.8c0 1.8-3.2 3.3-7.1 3.3s-7.1-1.5-7.1-3.3 3.2-1.7 7.1-1.7 7.1-.2 7.1 1.7z" class="st7"/><path d="M303.7 30.1v.9c0 2.3-.6 4.1-1.3 4.1s-1.3-1.8-1.3-4.1v-.9h2.6z"/></svg>